<?xml version="1.0" encoding="UTF-8"?>
<!DOCTYPE svg PUBLIC "-//W3C//DTD SVG 1.1//EN" "http://www.w3.org/Graphics/SVG/1.1/DTD/svg11.dtd">
<svg xmlns="http://www.w3.org/2000/svg" version="1.1" width="5225px" height="1770px" style="shape-rendering:geometricPrecision; text-rendering:geometricPrecision; image-rendering:optimizeQuality; fill-rule:evenodd; clip-rule:evenodd" xmlns:xlink="http://www.w3.org/1999/xlink">
<g><path style="opacity:1" fill="#fefffe" d="M 3622.5,-0.5 C 3623.5,-0.5 3624.5,-0.5 3625.5,-0.5C 3676.16,190.77 3708.66,385.103 3723,582.5C 3730.63,695.859 3730.3,809.193 3722,922.5C 3700.67,932.832 3678.51,940.999 3655.5,947C 3616.76,956.614 3577.76,964.947 3538.5,972C 3676.99,1024.37 3819.33,1062.54 3965.5,1086.5C 3943.54,1173.85 3920.87,1261.02 3897.5,1348C 3885.39,1347.43 3873.39,1345.76 3861.5,1343C 3797.53,1328.72 3734.36,1311.55 3672,1291.5C 3620.16,1295.33 3568.66,1301.83 3517.5,1311C 3482.79,1317.41 3448.12,1324.08 3413.5,1331C 3346,1346.1 3278.33,1360.43 3210.5,1374C 3159.02,1384.78 3107.02,1391.45 3054.5,1394C 2970.83,1394.83 2887.16,1394.67 2803.5,1393.5C 2788.24,1367.31 2775.41,1339.98 2765,1311.5C 2613.29,1388.03 2453.79,1411.2 2286.5,1381C 2251.95,1373.71 2218.45,1363.21 2186,1349.5C 2177.67,1384.5 2169.33,1419.5 2161,1454.5C 2160.61,1455.43 2159.95,1456.09 2159,1456.5C 2103.18,1442.09 2047.35,1427.75 1991.5,1413.5C 2000.8,1356.16 2013.14,1299.33 2028.5,1243C 2007.43,1218.69 1987.93,1193.19 1970,1166.5C 1941.51,1242.17 1904.17,1312.83 1858,1378.5C 1854.19,1383.94 1850.03,1389.11 1845.5,1394C 1728.83,1394.67 1612.17,1394.67 1495.5,1394C 1441.41,1325.18 1404.91,1247.68 1386,1161.5C 1379.26,1130.46 1374.42,1099.13 1371.5,1067.5C 1327.85,1090.44 1281.85,1106.94 1233.5,1117C 1218.53,1120.36 1203.53,1123.53 1188.5,1126.5C 1189.2,1230.54 1176.37,1332.87 1150,1433.5C 1125.12,1520.24 1087.62,1600.91 1037.5,1675.5C 1036.64,1676.58 1035.64,1676.75 1034.5,1676C 939.557,1610.06 844.89,1543.72 750.5,1477C 816.227,1413.43 861.394,1337.27 886,1248.5C 907.661,1170.57 915.661,1091.24 910,1010.5C 905.119,932.545 892.452,855.879 872,780.5C 865.318,756.103 858.485,731.77 851.5,707.5C 955.5,707.5 1059.5,707.5 1163.5,707.5C 1162.47,768.401 1165.47,829.068 1172.5,889.5C 1220.82,872.275 1258.99,842.275 1287,799.5C 1302.65,770.728 1312.15,740.062 1315.5,707.5C 1416.17,707.5 1516.83,707.5 1617.5,707.5C 1617.89,814.993 1625.39,921.993 1640,1028.5C 1652.08,1109.14 1672.74,1187.47 1702,1263.5C 1730.17,1186.15 1750.84,1106.82 1764,1025.5C 1782.09,920.507 1793.93,814.841 1799.5,708.5C 1892.83,707.333 1986.16,707.167 2079.5,708C 2070.15,776.918 2058.15,845.418 2043.5,913.5C 2057.68,954.872 2077.85,992.872 2104,1027.5C 2139.37,946.917 2184.37,872.584 2239,804.5C 2283.42,749.394 2335.26,702.894 2394.5,665C 2461.66,623.085 2534.82,600.918 2614,598.5C 2715.61,601.147 2801.27,639.147 2871,712.5C 2880.71,723.206 2890.04,734.206 2899,745.5C 2915.54,851.085 2935.21,956.085 2958,1060.5C 2973.87,1129.77 2994.37,1197.6 3019.5,1264C 3076.99,1264.56 3133.66,1257.9 3189.5,1244C 3258.68,1227.12 3327.68,1209.79 3396.5,1192C 3275.98,1147.94 3157.64,1098.6 3041.5,1044C 3040.92,1043.11 3040.59,1042.11 3040.5,1041C 3064.26,951.711 3088.43,862.544 3113,773.5C 3178.97,796.428 3246.8,810.928 3316.5,817C 3364.19,822.774 3411.86,822.774 3459.5,817C 3465.24,816.255 3470.74,814.755 3476,812.5C 3477.19,727.235 3468.86,642.902 3451,559.5C 3433.05,471.363 3408.72,385.029 3378,300.5C 3349.12,224.68 3319.95,149.013 3290.5,73.5C 3401.42,49.4341 3512.08,24.7675 3622.5,-0.5 Z M 2524.5,938.5 C 2588.67,936.016 2641.51,959.016 2683,1007.5C 2680.6,1013.63 2677.6,1019.63 2674,1025.5C 2639.88,1075.95 2595.04,1113.78 2539.5,1139C 2450.23,1178.66 2359.23,1183.16 2266.5,1152.5C 2293.27,1095.5 2329.94,1045.66 2376.5,1003C 2408.71,977.222 2444.71,958.222 2484.5,946C 2497.79,942.51 2511.13,940.01 2524.5,938.5 Z"/></g>
<g><path style="opacity:1" fill="#fefffe" d="M 5224.5,1108.5 C 5224.5,1175.5 5224.5,1242.5 5224.5,1309.5C 5142.62,1308.86 5060.96,1312.69 4979.5,1321C 4923.1,1327.43 4866.76,1334.43 4810.5,1342C 4715.88,1355.95 4621.21,1369.61 4526.5,1383C 4484,1388.65 4441.34,1392.32 4398.5,1394C 4314.5,1394.5 4230.5,1394.67 4146.5,1394.5C 4080.82,1185.41 4041.32,971.405 4028,752.5C 4015.38,573.837 4015.38,395.17 4028,216.5C 4032.57,146.683 4038.73,77.0165 4046.5,7.5C 4153.07,42.6337 4259.73,77.4671 4366.5,112C 4367.52,112.519 4368.18,113.353 4368.5,114.5C 4337.18,273.095 4317.01,433.095 4308,594.5C 4298.86,757.925 4306.2,920.591 4330,1082.5C 4339.6,1143.72 4352.43,1204.22 4368.5,1264C 4404.6,1264.75 4440.6,1263.08 4476.5,1259C 4548.34,1250.21 4620,1240.21 4691.5,1229C 4657.01,1218.28 4622.68,1206.95 4588.5,1195C 4574.5,1189 4560.5,1183 4546.5,1177C 4537.18,1172.68 4528.18,1167.84 4519.5,1162.5C 4468.69,1035.06 4418.03,907.556 4367.5,780C 4438.02,679.888 4532.35,612.555 4650.5,578C 4751.58,547.811 4854.58,538.478 4959.5,550C 4992.67,553.751 5025.67,558.584 5058.5,564.5C 5067.67,670.189 5077.17,775.856 5087,881.5C 5087.83,885.541 5087.66,889.541 5086.5,893.5C 4997.02,870.491 4906.35,864.324 4814.5,875C 4752.89,880.982 4694.56,897.982 4639.5,926C 4626.76,933.578 4614.43,941.744 4602.5,950.5C 4651.6,984.381 4704.6,1010.88 4761.5,1030C 4886.27,1071.49 5014.27,1096.82 5145.5,1106C 5171.8,1107.94 5198.13,1108.77 5224.5,1108.5 Z"/></g>
<g><path style="opacity:1" fill="#fefffe" d="M 219.5,333.5 C 259.496,331.537 291.329,346.537 315,378.5C 336.282,409.576 342.948,443.576 335,480.5C 324.835,519.659 301.335,547.493 264.5,564C 220.373,577.845 183.206,567.345 153,532.5C 127.604,499.544 119.271,462.544 128,421.5C 137.499,381.338 161.333,353.505 199.5,338C 206.259,336.285 212.925,334.785 219.5,333.5 Z"/></g>
<g><path style="opacity:1" fill="#fefffe" d="M 465.5,333.5 C 502.87,330.889 533.037,344.222 556,373.5C 580.502,407.344 587.835,444.678 578,485.5C 567.757,520.74 546.257,546.573 513.5,563C 467.682,578.17 428.849,567.67 397,531.5C 370.872,497.536 362.872,459.536 373,417.5C 387.328,370.993 418.161,342.993 465.5,333.5 Z"/></g>
<g><path style="opacity:1" fill="#fefffe" d="M -0.5,1076.5 C -0.5,1058.83 -0.5,1041.17 -0.5,1023.5C 4.78799,955.023 22.288,889.69 52,827.5C 72.1394,785.191 95.8061,745.191 123,707.5C 220.977,740.826 319.144,773.326 417.5,805C 414.809,798.595 412.309,792.095 410,785.5C 398.872,759.583 388.038,733.583 377.5,707.5C 457.167,707.5 536.833,707.5 616.5,707.5C 635.172,747.674 651.006,789.008 664,831.5C 678.33,880.476 686.33,930.476 688,981.5C 694.075,1083.39 676.741,1181.06 636,1274.5C 615.387,1316.93 590.887,1356.76 562.5,1394C 430.5,1394.67 298.5,1394.67 166.5,1394C 130.326,1361.84 98.4923,1326 71,1286.5C 29.307,1222.59 5.47367,1152.59 -0.5,1076.5 Z M 428.5,840.5 C 459.82,931.895 468.987,1025.56 456,1121.5C 448.258,1167.58 431.425,1209.91 405.5,1248.5C 324.559,1185.52 296.726,1104.18 322,1004.5C 336.536,962.412 357.536,924.078 385,889.5C 398.594,872.404 413.094,856.07 428.5,840.5 Z"/></g>
<g><path style="opacity:1" fill="#fefffe" d="M 1312.5,1769.5 C 1305.5,1769.5 1298.5,1769.5 1291.5,1769.5C 1260.53,1764.74 1236.03,1749.4 1218,1723.5C 1197.44,1691.14 1191.44,1656.14 1200,1618.5C 1208.98,1584.52 1228.81,1559.02 1259.5,1542C 1312.58,1522.69 1355.75,1535.86 1389,1581.5C 1412.06,1619.29 1415.73,1658.95 1400,1700.5C 1382.65,1738.71 1353.48,1761.71 1312.5,1769.5 Z"/></g>
<g><path style="opacity:1" fill="#fefffe" d="M 1558.5,1769.5 C 1551.5,1769.5 1544.5,1769.5 1537.5,1769.5C 1497.66,1762.19 1468.83,1740.19 1451,1703.5C 1435.9,1665.23 1437.24,1627.56 1455,1590.5C 1485.57,1539.98 1529.07,1523.15 1585.5,1540C 1625.68,1560.54 1648.18,1593.38 1653,1638.5C 1656.9,1688.52 1638.4,1727.68 1597.5,1756C 1585.24,1763.03 1572.24,1767.53 1558.5,1769.5 Z"/></g>
</svg>
