<?xml version="1.0" encoding="UTF-8"?>
<!DOCTYPE svg PUBLIC "-//W3C//DTD SVG 1.1//EN" "http://www.w3.org/Graphics/SVG/1.1/DTD/svg11.dtd">
<svg xmlns="http://www.w3.org/2000/svg" version="1.1" width="5184px" height="648px" style="shape-rendering:geometricPrecision; text-rendering:geometricPrecision; image-rendering:optimizeQuality; fill-rule:evenodd; clip-rule:evenodd" xmlns:xlink="http://www.w3.org/1999/xlink">
<g><path style="opacity:0.996" fill="#fefefe" d="M 2129.5,12.5 C 2134.17,12.5 2138.83,12.5 2143.5,12.5C 2160.29,199.49 2176.95,386.49 2193.5,573.5C 2128.84,578.894 2064.17,584.227 1999.5,589.5C 1994.22,525.162 1988.89,460.829 1983.5,396.5C 1925.16,401.44 1866.83,406.44 1808.5,411.5C 1813.89,476.83 1819.23,542.163 1824.5,607.5C 1759.17,612.894 1693.84,618.227 1628.5,623.5C 1612.06,434.842 1595.72,246.176 1579.5,57.5C 1641.16,52.4397 1702.83,47.4397 1764.5,42.5C 1769.11,95.8381 1773.77,149.171 1778.5,202.5C 1844.5,197.5 1910.5,192.5 1976.5,187.5C 1972.11,133.837 1967.77,80.1704 1963.5,26.5C 2019.03,22.4834 2074.37,17.8167 2129.5,12.5 Z"/></g>
<g><path style="opacity:0.997" fill="#fefefe" d="M 588.5,617.5 C 586.302,617.12 584.635,617.787 583.5,619.5C 582.833,619.5 582.167,619.5 581.5,619.5C 579.302,619.12 577.635,619.787 576.5,621.5C 572.918,622.692 569.251,623.692 565.5,624.5C 563.626,624.61 562.126,623.944 561,622.5C 535.361,585.362 509.528,548.362 483.5,511.5C 407.167,510.167 330.833,510.167 254.5,511.5C 234.816,547.553 214.149,582.887 192.5,617.5C 191.094,617.973 190.427,618.973 190.5,620.5C 189.538,624.146 187.205,625.313 183.5,624C 128.525,609.006 73.5246,594.173 18.5,579.5C 19.7717,570.189 22.9384,561.522 28,553.5C 35.1906,542.435 42.3573,531.435 49.5,520.5C 50.9063,520.027 51.573,519.027 51.5,517.5C 51.3284,516.508 51.6618,515.842 52.5,515.5C 53.9063,515.027 54.573,514.027 54.5,512.5C 54.6596,510.847 55.3263,509.514 56.5,508.5C 57.9063,508.027 58.573,507.027 58.5,505.5C 58.3284,504.508 58.6618,503.842 59.5,503.5C 60.9063,503.027 61.573,502.027 61.5,500.5C 61.6596,498.847 62.3263,497.514 63.5,496.5C 64.9063,496.027 65.573,495.027 65.5,493.5C 65.3284,492.508 65.6618,491.842 66.5,491.5C 67.9063,491.027 68.573,490.027 68.5,488.5C 68.3284,487.508 68.6618,486.842 69.5,486.5C 70.9063,486.027 71.573,485.027 71.5,483.5C 71.3284,482.508 71.6618,481.842 72.5,481.5C 73.9063,481.027 74.573,480.027 74.5,478.5C 74.3284,477.508 74.6618,476.842 75.5,476.5C 76.9063,476.027 77.573,475.027 77.5,473.5C 77.6596,471.847 78.3263,470.514 79.5,469.5C 80.9063,469.027 81.573,468.027 81.5,466.5C 81.3284,465.508 81.6618,464.842 82.5,464.5C 83.9063,464.027 84.573,463.027 84.5,461.5C 84.3284,460.508 84.6618,459.842 85.5,459.5C 86.9063,459.027 87.573,458.027 87.5,456.5C 87.3284,455.508 87.6618,454.842 88.5,454.5C 89.9063,454.027 90.573,453.027 90.5,451.5C 90.3284,450.508 90.6618,449.842 91.5,449.5C 92.9063,449.027 93.573,448.027 93.5,446.5C 93.3284,445.508 93.6618,444.842 94.5,444.5C 95.9063,444.027 96.573,443.027 96.5,441.5C 96.3284,440.508 96.6618,439.842 97.5,439.5C 98.9063,439.027 99.573,438.027 99.5,436.5C 99.3284,435.508 99.6618,434.842 100.5,434.5C 101.906,434.027 102.573,433.027 102.5,431.5C 102.328,430.508 102.662,429.842 103.5,429.5C 104.906,429.027 105.573,428.027 105.5,426.5C 117.749,404.328 130.749,382.661 144.5,361.5C 145.906,361.027 146.573,360.027 146.5,358.5C 146.328,357.508 146.662,356.842 147.5,356.5C 148.906,356.027 149.573,355.027 149.5,353.5C 149.328,352.508 149.662,351.842 150.5,351.5C 151.906,351.027 152.573,350.027 152.5,348.5C 152.328,347.508 152.662,346.842 153.5,346.5C 154.906,346.027 155.573,345.027 155.5,343.5C 156.906,343.027 157.573,342.027 157.5,340.5C 157.328,339.508 157.662,338.842 158.5,338.5C 159.906,338.027 160.573,337.027 160.5,335.5C 160.328,334.508 160.662,333.842 161.5,333.5C 162.906,333.027 163.573,332.027 163.5,330.5C 163.328,329.508 163.662,328.842 164.5,328.5C 165.906,328.027 166.573,327.027 166.5,325.5C 166.328,324.508 166.662,323.842 167.5,323.5C 168.906,323.027 169.573,322.027 169.5,320.5C 169.328,319.508 169.662,318.842 170.5,318.5C 171.906,318.027 172.573,317.027 172.5,315.5C 173.906,315.027 174.573,314.027 174.5,312.5C 174.328,311.508 174.662,310.842 175.5,310.5C 176.906,310.027 177.573,309.027 177.5,307.5C 177.328,306.508 177.662,305.842 178.5,305.5C 179.906,305.027 180.573,304.027 180.5,302.5C 180.328,301.508 180.662,300.842 181.5,300.5C 182.906,300.027 183.573,299.027 183.5,297.5C 183.328,296.508 183.662,295.842 184.5,295.5C 185.906,295.027 186.573,294.027 186.5,292.5C 187.906,292.027 188.573,291.027 188.5,289.5C 188.328,288.508 188.662,287.842 189.5,287.5C 190.906,287.027 191.573,286.027 191.5,284.5C 191.328,283.508 191.662,282.842 192.5,282.5C 193.906,282.027 194.573,281.027 194.5,279.5C 194.328,278.508 194.662,277.842 195.5,277.5C 196.906,277.027 197.573,276.027 197.5,274.5C 198.906,274.027 199.573,273.027 199.5,271.5C 199.328,270.508 199.662,269.842 200.5,269.5C 201.906,269.027 202.573,268.027 202.5,266.5C 202.328,265.508 202.662,264.842 203.5,264.5C 204.906,264.027 205.573,263.027 205.5,261.5C 205.328,260.508 205.662,259.842 206.5,259.5C 207.906,259.027 208.573,258.027 208.5,256.5C 210,252.827 212,249.494 214.5,246.5C 215.906,246.027 216.573,245.027 216.5,243.5C 216.328,242.508 216.662,241.842 217.5,241.5C 218.906,241.027 219.573,240.027 219.5,238.5C 264.06,164.389 308.893,90.3893 354,16.5C 358.729,14.7653 363.063,15.4319 367,18.5C 482.667,204.5 598.333,390.5 714,576.5C 714.667,577.833 714.667,579.167 714,580.5C 672.324,593.336 630.49,605.67 588.5,617.5 Z M 363.5,267.5 C 365.074,267.937 366.241,268.937 367,270.5C 389.5,308.333 412,346.167 434.5,384C 390.167,384.667 345.833,384.667 301.5,384C 322.574,345.351 343.24,306.517 363.5,267.5 Z"/></g>
<g><path style="opacity:0.994" fill="#fefefe" d="M 4336.5,158.5 C 4336.96,159.88 4337.96,160.547 4339.5,160.5C 4346.43,162.316 4353.43,163.649 4360.5,164.5C 4364.47,166.575 4368.81,167.575 4373.5,167.5C 4378.81,169.908 4384.47,171.242 4390.5,171.5C 4392.1,171.232 4393.43,171.566 4394.5,172.5C 4397.85,174.258 4401.52,175.258 4405.5,175.5C 4407.56,175.517 4409.56,175.85 4411.5,176.5C 4412.64,178.213 4414.3,178.88 4416.5,178.5C 4447.45,185.478 4476.78,196.645 4504.5,212C 4528.95,226.04 4547.11,245.874 4559,271.5C 4575.03,309.572 4570.03,344.572 4544,376.5C 4536.14,384.698 4527.97,392.531 4519.5,400C 4506.83,408 4494.17,416 4481.5,424C 4480.94,424.725 4480.61,425.558 4480.5,426.5C 4497.14,490.046 4512.97,553.713 4528,617.5C 4476.25,619.507 4424.41,620.84 4372.5,621.5C 4365.15,572.723 4357.15,524.057 4348.5,475.5C 4327.48,471.295 4306.48,466.962 4285.5,462.5C 4275.17,507.167 4264.83,551.833 4254.5,596.5C 4206.77,587.22 4159.1,577.553 4111.5,567.5C 4112.31,563.241 4113.64,559.241 4115.5,555.5C 4119.73,545.621 4122.89,535.288 4125,524.5C 4127.57,511.827 4130.07,499.16 4132.5,486.5C 4133.88,476.099 4135.71,465.765 4138,455.5C 4162.82,348.223 4187.32,240.889 4211.5,133.5C 4253.25,141.354 4294.92,149.687 4336.5,158.5 Z M 4402.5,294.5 C 4403.83,301.833 4403.83,309.167 4402.5,316.5C 4397.32,326.472 4388.99,331.972 4377.5,333C 4367.83,333.667 4358.17,333.667 4348.5,333C 4337.81,331.607 4327.14,330.107 4316.5,328.5C 4316.36,322.464 4316.69,316.464 4317.5,310.5C 4321.75,296.829 4325.08,282.829 4327.5,268.5C 4328.93,265.039 4330.1,261.372 4331,257.5C 4331.67,256.422 4332.67,255.755 4334,255.5C 4357.99,259.996 4378.99,270.329 4397,286.5C 4399.09,289.07 4400.92,291.737 4402.5,294.5 Z"/></g>
<g><path style="opacity:0.995" fill="#fefefe" d="M 3188.5,137.5 C 3193.23,139.237 3198.23,140.237 3203.5,140.5C 3230.68,145.666 3253.18,158.666 3271,179.5C 3271.67,181.5 3271.67,183.5 3271,185.5C 3261.3,224.64 3251.13,263.64 3240.5,302.5C 3230.76,294.382 3219.6,289.382 3207,287.5C 3197.04,288.978 3189.38,293.978 3184,302.5C 3176.11,317.49 3170.61,333.323 3167.5,350C 3165.29,361.104 3163.45,372.271 3162,383.5C 3158.86,413.856 3155.53,444.189 3152,474.5C 3149.22,502.181 3141.22,528.181 3128,552.5C 3113.11,576.224 3092.61,593.224 3066.5,603.5C 3042.39,612.361 3017.72,618.695 2992.5,622.5C 2954.94,626.256 2917.27,627.423 2879.5,626C 2871.54,625.786 2863.88,624.286 2856.5,621.5C 2850.51,570.917 2845.18,520.251 2840.5,469.5C 2865.15,475.163 2889.82,480.829 2914.5,486.5C 2929.44,489.365 2944.44,488.865 2959.5,485C 2962.28,484.478 2964.61,483.311 2966.5,481.5C 2986.74,471.419 3000.91,455.752 3009,434.5C 3015.29,418.293 3019.96,401.627 3023,384.5C 3026.59,363.453 3029.42,342.453 3031.5,321.5C 3034.07,298.583 3037.07,275.583 3040.5,252.5C 3047.16,202.695 3073.16,167.195 3118.5,146C 3133,141.8 3147.67,138.3 3162.5,135.5C 3171.32,136.112 3179.98,136.779 3188.5,137.5 Z"/></g>
<g><path style="opacity:0.995" fill="#fefefe" d="M 814.5,554.5 C 814.55,548.611 813.884,542.944 812.5,537.5C 809.883,508.279 806.55,479.279 802.5,450.5C 799.957,421.603 796.623,392.937 792.5,364.5C 792.03,352.596 790.696,340.929 788.5,329.5C 786.554,305.614 783.888,281.947 780.5,258.5C 779.19,252.712 778.523,246.712 778.5,240.5C 778.55,234.611 777.884,228.944 776.5,223.5C 773.19,199.71 770.523,175.71 768.5,151.5C 816.161,146.426 863.828,141.426 911.5,136.5C 923.167,241.832 934.833,347.166 946.5,452.5C 989.683,447.392 1032.68,442.392 1075.5,437.5C 1086.96,487.664 1097.62,537.998 1107.5,588.5C 1012.19,600.331 916.853,611.998 821.5,623.5C 819.24,600.492 816.907,577.492 814.5,554.5 Z"/></g>
<g><path style="opacity:0.996" fill="#fefefe" d="M 2762.5,503.5 C 2762.43,505.027 2763.09,506.027 2764.5,506.5C 2767,509.494 2769,512.827 2770.5,516.5C 2770.43,518.027 2771.09,519.027 2772.5,519.5C 2773.89,520.899 2774.89,522.566 2775.5,524.5C 2775.43,526.027 2776.09,527.027 2777.5,527.5C 2778.34,527.842 2778.67,528.508 2778.5,529.5C 2778.43,531.027 2779.09,532.027 2780.5,532.5C 2789.48,547.111 2798.98,561.445 2809,575.5C 2811.98,580.113 2813.81,585.113 2814.5,590.5C 2774.95,601.93 2735.45,613.597 2696,625.5C 2694.29,625.561 2692.96,624.894 2692,623.5C 2671.7,593.696 2651.2,564.029 2630.5,534.5C 2569.17,533.167 2507.83,533.167 2446.5,534.5C 2432.36,564.801 2415.69,593.467 2396.5,620.5C 2395.17,620.5 2394.5,621.167 2394.5,622.5C 2392.97,622.427 2391.97,623.094 2391.5,624.5C 2346.76,612.815 2302.09,600.815 2257.5,588.5C 2257.34,586.801 2257.51,585.134 2258,583.5C 2267.08,565.675 2276.41,548.008 2286,530.5C 2313.94,484.935 2342.11,439.601 2370.5,394.5C 2371.91,394.027 2372.57,393.027 2372.5,391.5C 2372.33,390.508 2372.66,389.842 2373.5,389.5C 2374.91,389.027 2375.57,388.027 2375.5,386.5C 2375.33,385.508 2375.66,384.842 2376.5,384.5C 2377.91,384.027 2378.57,383.027 2378.5,381.5C 2380,377.827 2382,374.494 2384.5,371.5C 2385.91,371.027 2386.57,370.027 2386.5,368.5C 2386.33,367.508 2386.66,366.842 2387.5,366.5C 2388.91,366.027 2389.57,365.027 2389.5,363.5C 2389.33,362.508 2389.66,361.842 2390.5,361.5C 2391.91,361.027 2392.57,360.027 2392.5,358.5C 2392.33,357.508 2392.66,356.842 2393.5,356.5C 2394.91,356.027 2395.57,355.027 2395.5,353.5C 2395.33,352.508 2395.66,351.842 2396.5,351.5C 2397.91,351.027 2398.57,350.027 2398.5,348.5C 2400,344.827 2402,341.494 2404.5,338.5C 2405.91,338.027 2406.57,337.027 2406.5,335.5C 2406.33,334.508 2406.66,333.842 2407.5,333.5C 2408.91,333.027 2409.57,332.027 2409.5,330.5C 2448.08,266.07 2486.91,201.737 2526,137.5C 2529.07,136.383 2532.24,136.216 2535.5,137C 2611.56,258.971 2687.23,381.138 2762.5,503.5 Z M 2533.5,339.5 C 2535.07,339.937 2536.24,340.937 2537,342.5C 2554.79,372.583 2572.96,402.417 2591.5,432C 2555.83,432.667 2520.17,432.667 2484.5,432C 2501.24,401.35 2517.57,370.517 2533.5,339.5 Z"/></g>
<g><path style="opacity:0.996" fill="#fefefe" d="M 5124.5,503.5 C 5124.43,505.027 5125.09,506.027 5126.5,506.5C 5129,509.494 5131,512.827 5132.5,516.5C 5132.43,518.027 5133.09,519.027 5134.5,519.5C 5135.89,520.899 5136.89,522.566 5137.5,524.5C 5137.43,526.027 5138.09,527.027 5139.5,527.5C 5140.34,527.842 5140.67,528.508 5140.5,529.5C 5140.43,531.027 5141.09,532.027 5142.5,532.5C 5151.48,547.111 5160.98,561.445 5171,575.5C 5173.98,580.113 5175.81,585.113 5176.5,590.5C 5136.95,601.93 5097.45,613.597 5058,625.5C 5056.29,625.561 5054.96,624.894 5054,623.5C 5033.7,593.696 5013.2,564.029 4992.5,534.5C 4931.17,533.167 4869.83,533.167 4808.5,534.5C 4794.36,564.801 4777.69,593.467 4758.5,620.5C 4757.17,620.5 4756.5,621.167 4756.5,622.5C 4754.97,622.427 4753.97,623.094 4753.5,624.5C 4708.76,612.815 4664.09,600.815 4619.5,588.5C 4619.34,586.801 4619.51,585.134 4620,583.5C 4629.08,565.675 4638.41,548.008 4648,530.5C 4675.94,484.935 4704.11,439.601 4732.5,394.5C 4733.91,394.027 4734.57,393.027 4734.5,391.5C 4734.33,390.508 4734.66,389.842 4735.5,389.5C 4736.91,389.027 4737.57,388.027 4737.5,386.5C 4737.33,385.508 4737.66,384.842 4738.5,384.5C 4739.91,384.027 4740.57,383.027 4740.5,381.5C 4742,377.827 4744,374.494 4746.5,371.5C 4747.91,371.027 4748.57,370.027 4748.5,368.5C 4748.33,367.508 4748.66,366.842 4749.5,366.5C 4750.91,366.027 4751.57,365.027 4751.5,363.5C 4751.33,362.508 4751.66,361.842 4752.5,361.5C 4753.91,361.027 4754.57,360.027 4754.5,358.5C 4754.33,357.508 4754.66,356.842 4755.5,356.5C 4756.91,356.027 4757.57,355.027 4757.5,353.5C 4757.33,352.508 4757.66,351.842 4758.5,351.5C 4759.91,351.027 4760.57,350.027 4760.5,348.5C 4762,344.827 4764,341.494 4766.5,338.5C 4767.91,338.027 4768.57,337.027 4768.5,335.5C 4768.33,334.508 4768.66,333.842 4769.5,333.5C 4770.91,333.027 4771.57,332.027 4771.5,330.5C 4810.08,266.07 4848.91,201.737 4888,137.5C 4891.07,136.383 4894.24,136.216 4897.5,137C 4973.56,258.971 5049.23,381.138 5124.5,503.5 Z M 4895.5,339.5 C 4897.07,339.937 4898.24,340.937 4899,342.5C 4916.79,372.583 4934.96,402.417 4953.5,432C 4917.83,432.667 4882.17,432.667 4846.5,432C 4863.24,401.35 4879.57,370.517 4895.5,339.5 Z"/></g>
<g><path style="opacity:0.773" fill="#3d3d3d" d="M 3188.5,137.5 C 3193.79,137.625 3198.79,138.625 3203.5,140.5C 3198.23,140.237 3193.23,139.237 3188.5,137.5 Z"/></g>
<g><path style="opacity:0.995" fill="#fefefe" d="M 3557.5,252.5 C 3556.05,251.698 3554.38,251.198 3552.5,251C 3547.18,250.501 3541.84,250.334 3536.5,250.5C 3533.81,251.038 3531.14,251.705 3528.5,252.5C 3526.79,266.45 3525.79,280.45 3525.5,294.5C 3557.83,295.833 3590.17,297.167 3622.5,298.5C 3618.55,355.837 3614.55,413.17 3610.5,470.5C 3577.83,468.833 3545.17,467.167 3512.5,465.5C 3511.11,485.829 3509.78,506.163 3508.5,526.5C 3556.5,529.25 3604.5,531.916 3652.5,534.5C 3650.65,565.177 3648.65,595.843 3646.5,626.5C 3539.82,620.749 3433.15,614.749 3326.5,608.5C 3336.98,451.822 3347.64,295.156 3358.5,138.5C 3462.17,143.167 3565.83,147.833 3669.5,152.5C 3667.54,189.169 3665.54,225.836 3663.5,262.5C 3628.11,259.694 3592.78,256.361 3557.5,252.5 Z"/></g>
<g><path style="opacity:0.995" fill="#fefefe" d="M 3950.5,252.5 C 3949.05,251.698 3947.38,251.198 3945.5,251C 3940.18,250.501 3934.84,250.334 3929.5,250.5C 3926.81,251.038 3924.14,251.705 3921.5,252.5C 3919.79,266.45 3918.79,280.45 3918.5,294.5C 3950.83,295.833 3983.17,297.167 4015.5,298.5C 4011.55,355.837 4007.55,413.17 4003.5,470.5C 3970.83,468.833 3938.17,467.167 3905.5,465.5C 3904.11,485.829 3902.78,506.163 3901.5,526.5C 3949.5,529.25 3997.5,531.916 4045.5,534.5C 4043.65,565.177 4041.65,595.843 4039.5,626.5C 3932.82,620.749 3826.15,614.749 3719.5,608.5C 3729.98,451.822 3740.64,295.156 3751.5,138.5C 3855.17,143.167 3958.83,147.833 4062.5,152.5C 4060.54,189.169 4058.54,225.836 4056.5,262.5C 4021.11,259.694 3985.78,256.361 3950.5,252.5 Z"/></g>
<g><path style="opacity:0.258" fill="#313131" d="M 4336.5,158.5 C 4344.7,160.135 4352.7,162.135 4360.5,164.5C 4353.43,163.649 4346.43,162.316 4339.5,160.5C 4337.96,160.547 4336.96,159.88 4336.5,158.5 Z"/></g>
<g><path style="opacity:0.311" fill="#1a1a1a" d="M 4360.5,164.5 C 4365.12,164.74 4369.45,165.74 4373.5,167.5C 4368.81,167.575 4364.47,166.575 4360.5,164.5 Z"/></g>
<g><path style="opacity:0.275" fill="#252525" d="M 4373.5,167.5 C 4379.45,168.073 4385.12,169.407 4390.5,171.5C 4384.47,171.242 4378.81,169.908 4373.5,167.5 Z"/></g>
<g><path style="opacity:0.157" fill="#252525" d="M 4394.5,172.5 C 4398.48,172.742 4402.15,173.742 4405.5,175.5C 4401.52,175.258 4397.85,174.258 4394.5,172.5 Z"/></g>
<g><path style="opacity:0.847" fill="#585858" d="M 4411.5,176.5 C 4413.4,176.796 4415.07,177.463 4416.5,178.5C 4414.3,178.88 4412.64,178.213 4411.5,176.5 Z"/></g>
<g><path style="opacity:0.753" fill="#838383" d="M 776.5,223.5 C 777.884,228.944 778.55,234.611 778.5,240.5C 777.116,235.056 776.45,229.389 776.5,223.5 Z"/></g>
<g><path style="opacity:0.553" fill="#6e6e6e" d="M 219.5,238.5 C 219.573,240.027 218.906,241.027 217.5,241.5C 217.427,239.973 218.094,238.973 219.5,238.5 Z"/></g>
<g><path style="opacity:0.616" fill="#717171" d="M 216.5,243.5 C 216.573,245.027 215.906,246.027 214.5,246.5C 214.427,244.973 215.094,243.973 216.5,243.5 Z"/></g>
<g><path style="opacity:0.851" fill="#4a4a4a" d="M 3536.5,250.5 C 3541.84,250.334 3547.18,250.501 3552.5,251C 3554.38,251.198 3556.05,251.698 3557.5,252.5C 3550.31,252.319 3543.31,251.652 3536.5,250.5 Z"/></g>
<g><path style="opacity:0.851" fill="#4a4a4a" d="M 3929.5,250.5 C 3934.84,250.334 3940.18,250.501 3945.5,251C 3947.38,251.198 3949.05,251.698 3950.5,252.5C 3943.31,252.319 3936.31,251.652 3929.5,250.5 Z"/></g>
<g><path style="opacity:0.533" fill="#636363" d="M 208.5,256.5 C 208.573,258.027 207.906,259.027 206.5,259.5C 206.427,257.973 207.094,256.973 208.5,256.5 Z"/></g>
<g><path style="opacity:0.6" fill="#676767" d="M 205.5,261.5 C 205.573,263.027 204.906,264.027 203.5,264.5C 203.427,262.973 204.094,261.973 205.5,261.5 Z"/></g>
<g><path style="opacity:0.513" fill="#1b1b1b" d="M 3040.5,252.5 C 3037.07,275.583 3034.07,298.583 3031.5,321.5C 3032.54,305.463 3034.04,289.463 3036,273.5C 3036.87,266.233 3038.37,259.233 3040.5,252.5 Z"/></g>
<g><path style="opacity:0.659" fill="#6c6c6c" d="M 202.5,266.5 C 202.573,268.027 201.906,269.027 200.5,269.5C 200.427,267.973 201.094,266.973 202.5,266.5 Z"/></g>
<g><path style="opacity:0.722" fill="#727272" d="M 199.5,271.5 C 199.573,273.027 198.906,274.027 197.5,274.5C 197.427,272.973 198.094,271.973 199.5,271.5 Z"/></g>
<g><path style="opacity:0.514" fill="#595959" d="M 197.5,274.5 C 197.573,276.027 196.906,277.027 195.5,277.5C 195.427,275.973 196.094,274.973 197.5,274.5 Z"/></g>
<g><path style="opacity:0.581" fill="#1b1b1b" d="M 4327.5,268.5 C 4325.08,282.829 4321.75,296.829 4317.5,310.5C 4318.97,295.949 4322.31,281.949 4327.5,268.5 Z"/></g>
<g><path style="opacity:0.584" fill="#5d5d5d" d="M 194.5,279.5 C 194.573,281.027 193.906,282.027 192.5,282.5C 192.427,280.973 193.094,279.973 194.5,279.5 Z"/></g>
<g><path style="opacity:0.651" fill="#626262" d="M 191.5,284.5 C 191.573,286.027 190.906,287.027 189.5,287.5C 189.427,285.973 190.094,284.973 191.5,284.5 Z"/></g>
<g><path style="opacity:0.706" fill="#676767" d="M 188.5,289.5 C 188.573,291.027 187.906,292.027 186.5,292.5C 186.427,290.973 187.094,289.973 188.5,289.5 Z"/></g>
<g><path style="opacity:0.494" fill="#505050" d="M 186.5,292.5 C 186.573,294.027 185.906,295.027 184.5,295.5C 184.427,293.973 185.094,292.973 186.5,292.5 Z"/></g>
<g><path style="opacity:0.8" fill="#6f6f6f" d="M 780.5,258.5 C 783.888,281.947 786.554,305.614 788.5,329.5C 785.117,306.054 782.45,282.387 780.5,258.5 Z"/></g>
<g><path style="opacity:0.549" fill="#161616" d="M 4402.5,294.5 C 4406.44,301.806 4406.44,309.139 4402.5,316.5C 4403.83,309.167 4403.83,301.833 4402.5,294.5 Z"/></g>
<g><path style="opacity:0.541" fill="#575757" d="M 183.5,297.5 C 183.573,299.027 182.906,300.027 181.5,300.5C 181.427,298.973 182.094,297.973 183.5,297.5 Z"/></g>
<g><path style="opacity:0.596" fill="#5d5d5d" d="M 180.5,302.5 C 180.573,304.027 179.906,305.027 178.5,305.5C 178.427,303.973 179.094,302.973 180.5,302.5 Z"/></g>
<g><path style="opacity:0.643" fill="#636363" d="M 177.5,307.5 C 177.573,309.027 176.906,310.027 175.5,310.5C 175.427,308.973 176.094,307.973 177.5,307.5 Z"/></g>
<g><path style="opacity:0.69" fill="#696969" d="M 174.5,312.5 C 174.573,314.027 173.906,315.027 172.5,315.5C 172.427,313.973 173.094,312.973 174.5,312.5 Z"/></g>
<g><path style="opacity:0.475" fill="#545454" d="M 172.5,315.5 C 172.573,317.027 171.906,318.027 170.5,318.5C 170.427,316.973 171.094,315.973 172.5,315.5 Z"/></g>
<g><path style="opacity:0.525" fill="#5a5a5a" d="M 169.5,320.5 C 169.573,322.027 168.906,323.027 167.5,323.5C 167.427,321.973 168.094,320.973 169.5,320.5 Z"/></g>
<g><path style="opacity:0.576" fill="#606060" d="M 166.5,325.5 C 166.573,327.027 165.906,328.027 164.5,328.5C 164.427,326.973 165.094,325.973 166.5,325.5 Z"/></g>
<g><path style="opacity:0.627" fill="#656565" d="M 163.5,330.5 C 163.573,332.027 162.906,333.027 161.5,333.5C 161.427,331.973 162.094,330.973 163.5,330.5 Z"/></g>
<g><path style="opacity:0.565" fill="#707070" d="M 2409.5,330.5 C 2409.57,332.027 2408.91,333.027 2407.5,333.5C 2407.43,331.973 2408.09,330.973 2409.5,330.5 Z"/></g>
<g><path style="opacity:0.565" fill="#707070" d="M 4771.5,330.5 C 4771.57,332.027 4770.91,333.027 4769.5,333.5C 4769.43,331.973 4770.09,330.973 4771.5,330.5 Z"/></g>
<g><path style="opacity:0.136" fill="#4b4b4b" d="M 788.5,329.5 C 790.696,340.929 792.03,352.596 792.5,364.5C 790.45,353.054 789.117,341.388 788.5,329.5 Z"/></g>
<g><path style="opacity:0.678" fill="#6c6c6c" d="M 160.5,335.5 C 160.573,337.027 159.906,338.027 158.5,338.5C 158.427,336.973 159.094,335.973 160.5,335.5 Z"/></g>
<g><path style="opacity:0.624" fill="#737373" d="M 2406.5,335.5 C 2406.57,337.027 2405.91,338.027 2404.5,338.5C 2404.43,336.973 2405.09,335.973 2406.5,335.5 Z"/></g>
<g><path style="opacity:0.624" fill="#737373" d="M 4768.5,335.5 C 4768.57,337.027 4767.91,338.027 4766.5,338.5C 4766.43,336.973 4767.09,335.973 4768.5,335.5 Z"/></g>
<g><path style="opacity:0.722" fill="#757575" d="M 157.5,340.5 C 157.573,342.027 156.906,343.027 155.5,343.5C 155.427,341.973 156.094,340.973 157.5,340.5 Z"/></g>
<g><path style="opacity:0.506" fill="#5d5d5d" d="M 155.5,343.5 C 155.573,345.027 154.906,346.027 153.5,346.5C 153.427,344.973 154.094,343.973 155.5,343.5 Z"/></g>
<g><path style="opacity:0.557" fill="#636363" d="M 152.5,348.5 C 152.573,350.027 151.906,351.027 150.5,351.5C 150.427,349.973 151.094,348.973 152.5,348.5 Z"/></g>
<g><path style="opacity:0.518" fill="#626262" d="M 2398.5,348.5 C 2398.57,350.027 2397.91,351.027 2396.5,351.5C 2396.43,349.973 2397.09,348.973 2398.5,348.5 Z"/></g>
<g><path style="opacity:0.518" fill="#626262" d="M 4760.5,348.5 C 4760.57,350.027 4759.91,351.027 4758.5,351.5C 4758.43,349.973 4759.09,348.973 4760.5,348.5 Z"/></g>
<g><path style="opacity:0.612" fill="#686868" d="M 149.5,353.5 C 149.573,355.027 148.906,356.027 147.5,356.5C 147.427,354.973 148.094,353.973 149.5,353.5 Z"/></g>
<g><path style="opacity:0.573" fill="#656565" d="M 2395.5,353.5 C 2395.57,355.027 2394.91,356.027 2393.5,356.5C 2393.43,354.973 2394.09,353.973 2395.5,353.5 Z"/></g>
<g><path style="opacity:0.573" fill="#656565" d="M 4757.5,353.5 C 4757.57,355.027 4756.91,356.027 4755.5,356.5C 4755.43,354.973 4756.09,353.973 4757.5,353.5 Z"/></g>
<g><path style="opacity:0.651" fill="#707070" d="M 146.5,358.5 C 146.573,360.027 145.906,361.027 144.5,361.5C 144.427,359.973 145.094,358.973 146.5,358.5 Z"/></g>
<g><path style="opacity:0.624" fill="#686868" d="M 2392.5,358.5 C 2392.57,360.027 2391.91,361.027 2390.5,361.5C 2390.43,359.973 2391.09,358.973 2392.5,358.5 Z"/></g>
<g><path style="opacity:0.624" fill="#686868" d="M 4754.5,358.5 C 4754.57,360.027 4753.91,361.027 4752.5,361.5C 4752.43,359.973 4753.09,358.973 4754.5,358.5 Z"/></g>
<g><path style="opacity:0.994" fill="#fefefe" d="M 1498.5,362.5 C 1503.5,362.5 1508.5,362.5 1513.5,362.5C 1512.12,405.753 1510.12,448.92 1507.5,492C 1391.52,499.832 1275.52,507.332 1159.5,514.5C 1160.85,471.579 1162.85,428.745 1165.5,386C 1276.68,378.535 1387.68,370.701 1498.5,362.5 Z"/></g>
<g><path style="opacity:0.659" fill="#6e6e6e" d="M 2389.5,363.5 C 2389.57,365.027 2388.91,366.027 2387.5,366.5C 2387.43,364.973 2388.09,363.973 2389.5,363.5 Z"/></g>
<g><path style="opacity:0.659" fill="#6e6e6e" d="M 4751.5,363.5 C 4751.57,365.027 4750.91,366.027 4749.5,366.5C 4749.43,364.973 4750.09,363.973 4751.5,363.5 Z"/></g>
<g><path style="opacity:0.184" fill="#4b4b4b" d="M 792.5,364.5 C 796.623,392.937 799.957,421.603 802.5,450.5C 802.5,451.167 802.5,451.833 802.5,452.5C 798.523,423.379 795.19,394.046 792.5,364.5 Z"/></g>
<g><path style="opacity:0.694" fill="#777777" d="M 2386.5,368.5 C 2386.57,370.027 2385.91,371.027 2384.5,371.5C 2384.43,369.973 2385.09,368.973 2386.5,368.5 Z"/></g>
<g><path style="opacity:0.694" fill="#777777" d="M 4748.5,368.5 C 4748.57,370.027 4747.91,371.027 4746.5,371.5C 4746.43,369.973 4747.09,368.973 4748.5,368.5 Z"/></g>
<g><path style="opacity:0.537" fill="#6a6a6a" d="M 2378.5,381.5 C 2378.57,383.027 2377.91,384.027 2376.5,384.5C 2376.43,382.973 2377.09,381.973 2378.5,381.5 Z"/></g>
<g><path style="opacity:0.537" fill="#6a6a6a" d="M 4740.5,381.5 C 4740.57,383.027 4739.91,384.027 4738.5,384.5C 4738.43,382.973 4739.09,381.973 4740.5,381.5 Z"/></g>
<g><path style="opacity:0.58" fill="#6e6e6e" d="M 2375.5,386.5 C 2375.57,388.027 2374.91,389.027 2373.5,389.5C 2373.43,387.973 2374.09,386.973 2375.5,386.5 Z"/></g>
<g><path style="opacity:0.58" fill="#6e6e6e" d="M 4737.5,386.5 C 4737.57,388.027 4736.91,389.027 4735.5,389.5C 4735.43,387.973 4736.09,386.973 4737.5,386.5 Z"/></g>
<g><path style="opacity:0.616" fill="#737373" d="M 2372.5,391.5 C 2372.57,393.027 2371.91,394.027 2370.5,394.5C 2370.43,392.973 2371.09,391.973 2372.5,391.5 Z"/></g>
<g><path style="opacity:0.616" fill="#737373" d="M 4734.5,391.5 C 4734.57,393.027 4733.91,394.027 4732.5,394.5C 4732.43,392.973 4733.09,391.973 4734.5,391.5 Z"/></g>
<g><path style="opacity:0.627" fill="#6d6d6d" d="M 105.5,426.5 C 105.573,428.027 104.906,429.027 103.5,429.5C 103.427,427.973 104.094,426.973 105.5,426.5 Z"/></g>
<g><path style="opacity:0.608" fill="#676767" d="M 102.5,431.5 C 102.573,433.027 101.906,434.027 100.5,434.5C 100.427,432.973 101.094,431.973 102.5,431.5 Z"/></g>
<g><path style="opacity:0.588" fill="#606060" d="M 99.5,436.5 C 99.573,438.027 98.9063,439.027 97.5,439.5C 97.427,437.973 98.0937,436.973 99.5,436.5 Z"/></g>
<g><path style="opacity:0.569" fill="#585858" d="M 96.5,441.5 C 96.573,443.027 95.9063,444.027 94.5,444.5C 94.427,442.973 95.0937,441.973 96.5,441.5 Z"/></g>
<g><path style="opacity:0.549" fill="#545454" d="M 93.5,446.5 C 93.573,448.027 92.9063,449.027 91.5,449.5C 91.427,447.973 92.0937,446.973 93.5,446.5 Z"/></g>
<g><path style="opacity:0.529" fill="#4c4c4c" d="M 90.5,451.5 C 90.573,453.027 89.9063,454.027 88.5,454.5C 88.427,452.973 89.0937,451.973 90.5,451.5 Z"/></g>
<g><path style="opacity:0.514" fill="#444444" d="M 87.5,456.5 C 87.573,458.027 86.9063,459.027 85.5,459.5C 85.427,457.973 86.0937,456.973 87.5,456.5 Z"/></g>
<g><path style="opacity:0.475" fill="#414141" d="M 84.5,461.5 C 84.573,463.027 83.9063,464.027 82.5,464.5C 82.427,462.973 83.0937,461.973 84.5,461.5 Z"/></g>
<g><path style="opacity:0.42" fill="#3e3e3e" d="M 81.5,466.5 C 81.573,468.027 80.9063,469.027 79.5,469.5C 79.427,467.973 80.0937,466.973 81.5,466.5 Z"/></g>
<g><path style="opacity:0.612" fill="#525252" d="M 77.5,473.5 C 77.573,475.027 76.9063,476.027 75.5,476.5C 75.427,474.973 76.0937,473.973 77.5,473.5 Z"/></g>
<g><path style="opacity:0.855" fill="#6f6f6f" d="M 802.5,450.5 C 806.55,479.279 809.883,508.279 812.5,537.5C 808.45,509.39 805.117,481.057 802.5,452.5C 802.5,451.833 802.5,451.167 802.5,450.5 Z"/></g>
<g><path style="opacity:0.565" fill="#4e4e4e" d="M 74.5,478.5 C 74.573,480.027 73.9063,481.027 72.5,481.5C 72.427,479.973 73.0937,478.973 74.5,478.5 Z"/></g>
<g><path style="opacity:0.522" fill="#4b4b4b" d="M 71.5,483.5 C 71.573,485.027 70.9063,486.027 69.5,486.5C 69.427,484.973 70.0937,483.973 71.5,483.5 Z"/></g>
<g><path style="opacity:0.325" fill="#212121" d="M 2966.5,481.5 C 2964.61,483.311 2962.28,484.478 2959.5,485C 2944.44,488.865 2929.44,489.365 2914.5,486.5C 2932.17,487.743 2949.5,486.076 2966.5,481.5 Z"/></g>
<g><path style="opacity:0.475" fill="#474747" d="M 68.5,488.5 C 68.573,490.027 67.9063,491.027 66.5,491.5C 66.427,489.973 67.0937,488.973 68.5,488.5 Z"/></g>
<g><path style="opacity:0.424" fill="#424242" d="M 65.5,493.5 C 65.573,495.027 64.9063,496.027 63.5,496.5C 63.427,494.973 64.0937,493.973 65.5,493.5 Z"/></g>
<g><path style="opacity:0.596" fill="#5a5a5a" d="M 61.5,500.5 C 61.573,502.027 60.9063,503.027 59.5,503.5C 59.427,501.973 60.0937,500.973 61.5,500.5 Z"/></g>
<g><path style="opacity:0.62" fill="#0f0f0f" d="M 4132.5,486.5 C 4130.07,499.16 4127.57,511.827 4125,524.5C 4122.89,535.288 4119.73,545.621 4115.5,555.5C 4120.72,532.283 4126.39,509.283 4132.5,486.5 Z"/></g>
<g><path style="opacity:0.569" fill="#717171" d="M 2762.5,503.5 C 2763.91,503.973 2764.57,504.973 2764.5,506.5C 2763.09,506.027 2762.43,505.027 2762.5,503.5 Z"/></g>
<g><path style="opacity:0.569" fill="#717171" d="M 5124.5,503.5 C 5125.91,503.973 5126.57,504.973 5126.5,506.5C 5125.09,506.027 5124.43,505.027 5124.5,503.5 Z"/></g>
<g><path style="opacity:0.522" fill="#5a5a5a" d="M 58.5,505.5 C 58.573,507.027 57.9063,508.027 56.5,508.5C 56.427,506.973 57.0937,505.973 58.5,505.5 Z"/></g>
<g><path style="opacity:0.667" fill="#777777" d="M 54.5,512.5 C 54.573,514.027 53.9063,515.027 52.5,515.5C 52.427,513.973 53.0937,512.973 54.5,512.5 Z"/></g>
<g><path style="opacity:0.608" fill="#727272" d="M 2770.5,516.5 C 2771.91,516.973 2772.57,517.973 2772.5,519.5C 2771.09,519.027 2770.43,518.027 2770.5,516.5 Z"/></g>
<g><path style="opacity:0.608" fill="#727272" d="M 5132.5,516.5 C 5133.91,516.973 5134.57,517.973 5134.5,519.5C 5133.09,519.027 5132.43,518.027 5132.5,516.5 Z"/></g>
<g><path style="opacity:0.592" fill="#757575" d="M 51.5,517.5 C 51.573,519.027 50.9063,520.027 49.5,520.5C 49.427,518.973 50.0937,517.973 51.5,517.5 Z"/></g>
<g><path style="opacity:0.529" fill="#6a6a6a" d="M 2775.5,524.5 C 2776.91,524.973 2777.57,525.973 2777.5,527.5C 2776.09,527.027 2775.43,526.027 2775.5,524.5 Z"/></g>
<g><path style="opacity:0.529" fill="#6a6a6a" d="M 5137.5,524.5 C 5138.91,524.973 5139.57,525.973 5139.5,527.5C 5138.09,527.027 5137.43,526.027 5137.5,524.5 Z"/></g>
<g><path style="opacity:0.631" fill="#747474" d="M 2778.5,529.5 C 2779.91,529.973 2780.57,530.973 2780.5,532.5C 2779.09,532.027 2778.43,531.027 2778.5,529.5 Z"/></g>
<g><path style="opacity:0.631" fill="#747474" d="M 5140.5,529.5 C 5141.91,529.973 5142.57,530.973 5142.5,532.5C 5141.09,532.027 5140.43,531.027 5140.5,529.5 Z"/></g>
<g><path style="opacity:0.776" fill="#818181" d="M 812.5,537.5 C 813.884,542.944 814.55,548.611 814.5,554.5C 813.116,549.056 812.45,543.389 812.5,537.5 Z"/></g>
<g><path style="opacity:0.691" fill="#151515" d="M 3066.5,603.5 C 3043.48,615.757 3018.81,622.09 2992.5,622.5C 3017.72,618.695 3042.39,612.361 3066.5,603.5 Z"/></g>
<g><path style="opacity:0.765" fill="#4f4f4f" d="M 588.5,617.5 C 587.07,618.537 585.403,619.204 583.5,619.5C 584.635,617.787 586.302,617.12 588.5,617.5 Z"/></g>
<g><path style="opacity:0.016" fill="#242424" d="M 192.5,617.5 C 192.573,619.027 191.906,620.027 190.5,620.5C 190.427,618.973 191.094,617.973 192.5,617.5 Z"/></g>
<g><path style="opacity:0.855" fill="#525252" d="M 581.5,619.5 C 580.07,620.537 578.403,621.204 576.5,621.5C 577.635,619.787 579.302,619.12 581.5,619.5 Z"/></g>
<g><path style="opacity:0.071" fill="#1f1f1f" d="M 2396.5,620.5 C 2396.17,621.5 2395.5,622.167 2394.5,622.5C 2394.5,621.167 2395.17,620.5 2396.5,620.5 Z"/></g>
<g><path style="opacity:0.071" fill="#1f1f1f" d="M 4758.5,620.5 C 4758.17,621.5 4757.5,622.167 4756.5,622.5C 4756.5,621.167 4757.17,620.5 4758.5,620.5 Z"/></g>
<g><path style="opacity:0.574" fill="#202020" d="M 2394.5,622.5 C 2394.18,624.048 2393.18,624.715 2391.5,624.5C 2391.97,623.094 2392.97,622.427 2394.5,622.5 Z"/></g>
<g><path style="opacity:0.574" fill="#202020" d="M 4756.5,622.5 C 4756.18,624.048 4755.18,624.715 4753.5,624.5C 4753.97,623.094 4754.97,622.427 4756.5,622.5 Z"/></g>
</svg>
