<?xml version="1.0" encoding="UTF-8"?>
<!DOCTYPE svg PUBLIC "-//W3C//DTD SVG 1.1//EN" "http://www.w3.org/Graphics/SVG/1.1/DTD/svg11.dtd">
<svg xmlns="http://www.w3.org/2000/svg" version="1.1" width="6600px" height="5100px" style="shape-rendering:geometricPrecision; text-rendering:geometricPrecision; image-rendering:optimizeQuality; fill-rule:evenodd; clip-rule:evenodd" xmlns:xlink="http://www.w3.org/1999/xlink">
<g><path style="opacity:0.995" fill="#000000" d="M 4337.5,1346.5 C 4339.12,1346.36 4340.29,1347.03 4341,1348.5C 4402.24,1577.87 4436.24,1811.21 4443,2048.5C 4444.45,2122.26 4442.45,2195.93 4437,2269.5C 4415.67,2279.83 4393.51,2288 4370.5,2294C 4331.76,2303.61 4292.76,2311.95 4253.5,2319C 4391.99,2371.37 4534.33,2409.54 4680.5,2433.5C 4658.54,2520.85 4635.87,2608.02 4612.5,2695C 4600.39,2694.43 4588.39,2692.76 4576.5,2690C 4512.53,2675.72 4449.36,2658.55 4387,2638.5C 4335.16,2642.33 4283.66,2648.83 4232.5,2658C 4197.79,2664.41 4163.12,2671.08 4128.5,2678C 4061,2693.1 3993.33,2707.43 3925.5,2721C 3874.02,2731.78 3822.02,2738.45 3769.5,2741C 3685.83,2741.83 3602.16,2741.67 3518.5,2740.5C 3503.24,2714.31 3490.41,2686.98 3480,2658.5C 3328.29,2735.03 3168.79,2758.2 3001.5,2728C 2966.95,2720.71 2933.45,2710.21 2901,2696.5C 2892.67,2731.5 2884.33,2766.5 2876,2801.5C 2875.61,2802.43 2874.95,2803.09 2874,2803.5C 2818.18,2789.09 2762.35,2774.75 2706.5,2760.5C 2715.8,2703.16 2728.14,2646.33 2743.5,2590C 2722.43,2565.69 2702.93,2540.19 2685,2513.5C 2656.51,2589.17 2619.17,2659.83 2573,2725.5C 2569.19,2730.94 2565.03,2736.11 2560.5,2741C 2443.83,2741.67 2327.17,2741.67 2210.5,2741C 2156.41,2672.18 2119.91,2594.68 2101,2508.5C 2094.26,2477.46 2089.42,2446.13 2086.5,2414.5C 2042.85,2437.44 1996.85,2453.94 1948.5,2464C 1933.53,2467.36 1918.53,2470.53 1903.5,2473.5C 1904.2,2577.54 1891.37,2679.87 1865,2780.5C 1840.12,2867.24 1802.62,2947.91 1752.5,3022.5C 1751.64,3023.58 1750.64,3023.75 1749.5,3023C 1654.56,2957.06 1559.89,2890.72 1465.5,2824C 1531.23,2760.43 1576.39,2684.27 1601,2595.5C 1622.66,2517.57 1630.66,2438.24 1625,2357.5C 1620.12,2279.55 1607.45,2202.88 1587,2127.5C 1580.32,2103.1 1573.48,2078.77 1566.5,2054.5C 1670.5,2054.5 1774.5,2054.5 1878.5,2054.5C 1877.47,2115.4 1880.47,2176.07 1887.5,2236.5C 1935.82,2219.28 1973.99,2189.28 2002,2146.5C 2017.65,2117.73 2027.15,2087.06 2030.5,2054.5C 2131.17,2054.5 2231.83,2054.5 2332.5,2054.5C 2332.89,2161.99 2340.39,2268.99 2355,2375.5C 2367.08,2456.14 2387.74,2534.47 2417,2610.5C 2445.17,2533.15 2465.84,2453.82 2479,2372.5C 2497.09,2267.51 2508.93,2161.84 2514.5,2055.5C 2607.83,2054.33 2701.16,2054.17 2794.5,2055C 2785.15,2123.92 2773.15,2192.42 2758.5,2260.5C 2772.68,2301.87 2792.85,2339.87 2819,2374.5C 2854.37,2293.92 2899.37,2219.58 2954,2151.5C 2998.42,2096.39 3050.26,2049.89 3109.5,2012C 3176.66,1970.08 3249.82,1947.92 3329,1945.5C 3430.61,1948.15 3516.27,1986.15 3586,2059.5C 3595.71,2070.21 3605.04,2081.21 3614,2092.5C 3630.54,2198.08 3650.21,2303.08 3673,2407.5C 3688.87,2476.77 3709.37,2544.6 3734.5,2611C 3791.99,2611.56 3848.66,2604.9 3904.5,2591C 3973.68,2574.12 4042.68,2556.79 4111.5,2539C 3990.98,2494.94 3872.64,2445.6 3756.5,2391C 3755.92,2390.11 3755.59,2389.11 3755.5,2388C 3779.26,2298.71 3803.43,2209.54 3828,2120.5C 3893.97,2143.43 3961.8,2157.93 4031.5,2164C 4079.19,2169.77 4126.86,2169.77 4174.5,2164C 4180.24,2163.25 4185.74,2161.75 4191,2159.5C 4192.19,2074.23 4183.86,1989.9 4166,1906.5C 4148.05,1818.36 4123.72,1732.03 4093,1647.5C 4064.12,1571.68 4034.95,1496.01 4005.5,1420.5C 4116.42,1396.43 4227.08,1371.77 4337.5,1346.5 Z M 3239.5,2285.5 C 3303.67,2283.02 3356.51,2306.02 3398,2354.5C 3395.6,2360.63 3392.6,2366.63 3389,2372.5C 3354.88,2422.95 3310.04,2460.78 3254.5,2486C 3165.23,2525.66 3074.23,2530.16 2981.5,2499.5C 3008.27,2442.5 3044.94,2392.66 3091.5,2350C 3123.71,2324.22 3159.71,2305.22 3199.5,2293C 3212.79,2289.51 3226.13,2287.01 3239.5,2285.5 Z"/></g>
<g><path style="opacity:0.995" fill="#000000" d="M 4760.5,1354.5 C 4867.45,1389.43 4974.45,1424.26 5081.5,1459C 5082.52,1459.52 5083.18,1460.35 5083.5,1461.5C 5052.18,1620.1 5032.01,1780.1 5023,1941.5C 5013.86,2104.92 5021.2,2267.59 5045,2429.5C 5054.6,2490.72 5067.43,2551.22 5083.5,2611C 5119.6,2611.75 5155.6,2610.08 5191.5,2606C 5263.34,2597.21 5335,2587.21 5406.5,2576C 5372.01,2565.28 5337.68,2553.95 5303.5,2542C 5289.5,2536 5275.5,2530 5261.5,2524C 5252.18,2519.68 5243.18,2514.84 5234.5,2509.5C 5183.69,2382.06 5133.03,2254.56 5082.5,2127C 5153.02,2026.89 5247.35,1959.56 5365.5,1925C 5466.58,1894.81 5569.58,1885.48 5674.5,1897C 5707.67,1900.75 5740.67,1905.58 5773.5,1911.5C 5782.67,2017.19 5792.17,2122.86 5802,2228.5C 5802.83,2232.54 5802.66,2236.54 5801.5,2240.5C 5712.02,2217.49 5621.35,2211.32 5529.5,2222C 5467.89,2227.98 5409.56,2244.98 5354.5,2273C 5341.76,2280.58 5329.43,2288.74 5317.5,2297.5C 5366.6,2331.38 5419.6,2357.88 5476.5,2377C 5601.27,2418.49 5729.27,2443.82 5860.5,2453C 5886.8,2454.94 5913.13,2455.77 5939.5,2455.5C 5939.5,2522.5 5939.5,2589.5 5939.5,2656.5C 5857.62,2655.86 5775.96,2659.69 5694.5,2668C 5638.1,2674.43 5581.76,2681.43 5525.5,2689C 5430.88,2702.95 5336.21,2716.61 5241.5,2730C 5199,2735.65 5156.34,2739.32 5113.5,2741C 5029.5,2741.5 4945.5,2741.67 4861.5,2741.5C 4795.82,2532.41 4756.32,2318.41 4743,2099.5C 4730.38,1920.84 4730.38,1742.17 4743,1563.5C 4747.9,1493.75 4753.73,1424.08 4760.5,1354.5 Z"/></g>
<g><path style="opacity:0.99" fill="#000000" d="M 934.5,1680.5 C 974.496,1678.54 1006.33,1693.54 1030,1725.5C 1051.28,1756.58 1057.95,1790.58 1050,1827.5C 1039.84,1866.66 1016.34,1894.49 979.5,1911C 935.373,1924.85 898.206,1914.35 868,1879.5C 842.604,1846.54 834.271,1809.54 843,1768.5C 852.499,1728.34 876.333,1700.5 914.5,1685C 921.259,1683.28 927.925,1681.78 934.5,1680.5 Z"/></g>
<g><path style="opacity:0.99" fill="#000000" d="M 1180.5,1680.5 C 1217.87,1677.89 1248.04,1691.22 1271,1720.5C 1295.5,1754.34 1302.84,1791.68 1293,1832.5C 1282.76,1867.74 1261.26,1893.57 1228.5,1910C 1182.68,1925.17 1143.85,1914.67 1112,1878.5C 1085.87,1844.54 1077.87,1806.54 1088,1764.5C 1102.33,1717.99 1133.16,1689.99 1180.5,1680.5 Z"/></g>
<g><path style="opacity:0.994" fill="#000000" d="M 837.5,2054.5 C 935.669,2087.72 1034,2120.22 1132.5,2152C 1129.81,2145.6 1127.31,2139.1 1125,2132.5C 1113.87,2106.58 1103.04,2080.58 1092.5,2054.5C 1172.17,2054.5 1251.83,2054.5 1331.5,2054.5C 1350.17,2094.67 1366.01,2136.01 1379,2178.5C 1399.55,2252.45 1407.55,2327.79 1403,2404.5C 1396.46,2530.31 1354.63,2642.48 1277.5,2741C 1145.5,2741.67 1013.5,2741.67 881.5,2741C 841.472,2706.32 807.305,2666.82 779,2622.5C 717.851,2521.15 699.851,2412.48 725,2296.5C 740.568,2230.45 765.902,2168.45 801,2110.5C 812.928,2091.63 825.095,2072.97 837.5,2054.5 Z M 1143.5,2187.5 C 1174.82,2278.9 1183.99,2372.56 1171,2468.5C 1163.26,2514.58 1146.43,2556.91 1120.5,2595.5C 1039.56,2532.52 1011.73,2451.18 1037,2351.5C 1051.54,2309.41 1072.54,2271.08 1100,2236.5C 1113.59,2219.4 1128.09,2203.07 1143.5,2187.5 Z"/></g>
<g><path style="opacity:0.989" fill="#000000" d="M 2015.5,2879.5 C 2054.59,2881.45 2084.76,2898.79 2106,2931.5C 2126.35,2966.78 2130.01,3003.78 2117,3042.5C 2104.4,3073.54 2082.9,3096.04 2052.5,3110C 1999.94,3125.63 1958.77,3110.47 1929,3064.5C 1912.58,3035.07 1907.58,3003.74 1914,2970.5C 1922.15,2934.36 1942.31,2907.19 1974.5,2889C 1987.68,2883.12 2001.34,2879.95 2015.5,2879.5 Z"/></g>
<g><path style="opacity:0.989" fill="#000000" d="M 2262.5,2879.5 C 2292.26,2880.13 2317.09,2891.46 2337,2913.5C 2363.15,2944.07 2373.15,2979.4 2367,3019.5C 2359.27,3061.21 2336.44,3091.38 2298.5,3110C 2245.23,3125.28 2203.4,3109.78 2173,3063.5C 2153.2,3027.24 2150.2,2989.58 2164,2950.5C 2182.59,2906.81 2215.42,2883.14 2262.5,2879.5 Z"/></g>
</svg>
