<?xml version="1.0" encoding="UTF-8"?>
<!DOCTYPE svg PUBLIC "-//W3C//DTD SVG 1.1//EN" "http://www.w3.org/Graphics/SVG/1.1/DTD/svg11.dtd">
<svg xmlns="http://www.w3.org/2000/svg" version="1.1" width="6600px" height="5100px" style="shape-rendering:geometricPrecision; text-rendering:geometricPrecision; image-rendering:optimizeQuality; fill-rule:evenodd; clip-rule:evenodd" xmlns:xlink="http://www.w3.org/1999/xlink">
<g><path style="opacity:0.994" fill="#000000" d="M 2831.5,1496.5 C 2835.83,1496.5 2840.17,1496.5 2844.5,1496.5C 2861.74,1683.14 2878.74,1869.81 2895.5,2056.5C 2831.16,2062.11 2766.83,2067.77 2702.5,2073.5C 2696.71,2008.84 2691.05,1944.18 2685.5,1879.5C 2626.9,1884.27 2568.4,1889.6 2510,1895.5C 2514.45,1960.57 2519.95,2025.57 2526.5,2090.5C 2461.57,2095.6 2396.74,2101.27 2332,2107.5C 2314.89,1919.21 2298.06,1730.88 2281.5,1542.5C 2342.79,1536.75 2404.13,1531.41 2465.5,1526.5C 2470.83,1579.82 2475.83,1633.15 2480.5,1686.5C 2482.17,1686.83 2483.83,1687.17 2485.5,1687.5C 2550.15,1681.84 2614.81,1676.5 2679.5,1671.5C 2675.72,1618.09 2671.05,1564.75 2665.5,1511.5C 2720.99,1506.71 2776.33,1501.71 2831.5,1496.5 Z"/></g>
<g><path style="opacity:0.991" fill="#000000" d="M 1057.5,1499.5 C 1060.19,1499.34 1062.85,1499.5 1065.5,1500C 1069.67,1506.17 1073.83,1512.33 1078,1518.5C 1191.63,1699.47 1304.46,1880.97 1416.5,2063C 1367.17,2078.55 1317.67,2093.72 1268,2108.5C 1266.89,2108.41 1265.89,2108.08 1265,2107.5C 1239.08,2069.75 1212.58,2032.42 1185.5,1995.5C 1109.17,1994.33 1032.84,1994.17 956.5,1995C 935.509,2033.32 913.509,2070.99 890.5,2108C 889.667,2108.17 888.833,2108.33 888,2108.5C 832.172,2093.09 776.339,2077.75 720.5,2062.5C 723.434,2054.63 726.934,2046.96 731,2039.5C 748,2010.17 765,1980.83 782,1951.5C 873.091,1800.31 964.925,1649.64 1057.5,1499.5 Z M 1066.5,1749.5 C 1090.3,1788.83 1113.97,1828.33 1137.5,1868C 1092.5,1868.83 1047.5,1868.67 1002.5,1867.5C 1023.85,1828.14 1045.18,1788.81 1066.5,1749.5 Z"/></g>
<g><path style="opacity:0.991" fill="#000000" d="M 4914.5,1617.5 C 4984.34,1630.3 5053.68,1645.47 5122.5,1663C 5155.93,1671.89 5186.93,1685.89 5215.5,1705C 5238.77,1720.93 5255.27,1742.1 5265,1768.5C 5272.81,1802.58 5265.81,1833.25 5244,1860.5C 5237.5,1867 5231,1873.5 5224.5,1880C 5212.01,1889.08 5199.01,1897.42 5185.5,1905C 5183.55,1906.44 5182.22,1908.27 5181.5,1910.5C 5197.21,1974.01 5213.54,2037.34 5230.5,2100.5C 5230,2100.83 5229.5,2101.17 5229,2101.5C 5178.15,2102.83 5127.32,2104.16 5076.5,2105.5C 5070.23,2068.86 5064.06,2032.19 5058,1995.5C 5056.07,1983.7 5053.57,1972.03 5050.5,1960.5C 5029.8,1954.93 5008.97,1949.93 4988,1945.5C 4977.16,1990.37 4966.33,2035.2 4955.5,2080C 4907.96,2070.95 4860.63,2060.95 4813.5,2050C 4822.85,2016.76 4831.35,1983.26 4839,1949.5C 4864.75,1838.92 4889.91,1728.26 4914.5,1617.5 Z M 5033.5,1738.5 C 5054.43,1742.53 5073.76,1750.36 5091.5,1762C 5105.76,1773.87 5109.26,1788.37 5102,1805.5C 5096.11,1812.36 5088.61,1816.19 5079.5,1817C 5058.59,1819.08 5037.92,1817.58 5017.5,1812.5C 5017.33,1808.82 5017.5,1805.15 5018,1801.5C 5023.62,1780.57 5028.78,1759.57 5033.5,1738.5 Z"/></g>
<g><path style="opacity:0.991" fill="#000000" d="M 1602.5,1620.5 C 1605.83,1620.5 1609.17,1620.5 1612.5,1620.5C 1624.5,1726.17 1636.5,1831.83 1648.5,1937.5C 1691.15,1932.69 1733.65,1927.02 1776,1920.5C 1788.11,1970.57 1799.28,2020.9 1809.5,2071.5C 1714.55,2082.9 1619.72,2094.9 1525,2107.5C 1505.33,1950.68 1487.17,1793.68 1470.5,1636.5C 1514.68,1631.52 1558.68,1626.18 1602.5,1620.5 Z"/></g>
<g><path style="opacity:0.989" fill="#000000" d="M 3229.5,1620.5 C 3232.12,1620.23 3234.62,1620.56 3237,1621.5C 3330.75,1770.66 3423.75,1920.33 3516,2070.5C 3516.48,2071.45 3516.65,2072.45 3516.5,2073.5C 3476.54,2085.11 3436.71,2097.11 3397,2109.5C 3375.31,2079.31 3353.81,2048.97 3332.5,2018.5C 3271.17,2017.33 3209.84,2017.17 3148.5,2018C 3131.55,2048.08 3114.21,2077.91 3096.5,2107.5C 3095.67,2107.83 3094.83,2108.17 3094,2108.5C 3048.94,2096.53 3004.11,2083.86 2959.5,2070.5C 2982.91,2028.01 3007.08,1986.01 3032,1944.5C 3097.59,1836.31 3163.43,1728.31 3229.5,1620.5 Z M 3236.5,1821.5 C 3255.93,1852.85 3275.27,1884.35 3294.5,1916C 3258.17,1916.67 3221.83,1916.67 3185.5,1916C 3202.91,1884.69 3219.91,1853.19 3236.5,1821.5 Z"/></g>
<g><path style="opacity:0.99" fill="#000000" d="M 3859.5,1620.5 C 3893.11,1617.54 3923.45,1626.04 3950.5,1646C 3956.5,1650.67 3962.5,1655.33 3968.5,1660C 3970.77,1661.77 3972.44,1663.93 3973.5,1666.5C 3963.31,1706.59 3952.81,1746.59 3942,1786.5C 3932.19,1774.02 3919.36,1768.85 3903.5,1771C 3892.57,1775.93 3885.07,1784.1 3881,1795.5C 3874.62,1812.02 3869.95,1829.02 3867,1846.5C 3861.91,1881.82 3856.91,1917.15 3852,1952.5C 3848.7,1976.31 3843.37,1999.65 3836,2022.5C 3826.56,2042.61 3812.73,2059.11 3794.5,2072C 3768.3,2091.18 3738.97,2102.52 3706.5,2106C 3667.21,2108.9 3627.88,2109.9 3588.5,2109C 3579.28,2108.68 3570.12,2107.85 3561,2106.5C 3559.67,2106.25 3558.67,2105.58 3558,2104.5C 3552.44,2054.2 3547.27,2003.87 3542.5,1953.5C 3563.13,1960.07 3584.13,1965.24 3605.5,1969C 3619.8,1970.51 3634.13,1970.85 3648.5,1970C 3678.67,1965.83 3699.5,1949.66 3711,1921.5C 3720.05,1896.23 3726.05,1870.23 3729,1843.5C 3732.14,1810.77 3735.81,1778.1 3740,1745.5C 3744.82,1714.01 3757.15,1686.01 3777,1661.5C 3799.78,1638.36 3827.28,1624.69 3859.5,1620.5 Z"/></g>
<g><path style="opacity:0.989" fill="#000000" d="M 5591.5,1620.5 C 5594.12,1620.23 5596.62,1620.56 5599,1621.5C 5692.75,1770.66 5785.75,1920.33 5878,2070.5C 5878.48,2071.45 5878.65,2072.45 5878.5,2073.5C 5838.54,2085.11 5798.71,2097.11 5759,2109.5C 5737.31,2079.31 5715.81,2048.97 5694.5,2018.5C 5633.17,2017.33 5571.84,2017.17 5510.5,2018C 5493.55,2048.08 5476.21,2077.91 5458.5,2107.5C 5457.67,2107.83 5456.83,2108.17 5456,2108.5C 5410.94,2096.53 5366.11,2083.86 5321.5,2070.5C 5344.91,2028.01 5369.08,1986.01 5394,1944.5C 5459.59,1836.31 5525.43,1728.31 5591.5,1620.5 Z M 5598.5,1821.5 C 5617.93,1852.85 5637.27,1884.35 5656.5,1916C 5620.17,1916.67 5583.83,1916.67 5547.5,1916C 5564.91,1884.69 5581.91,1853.19 5598.5,1821.5 Z"/></g>
<g><path style="opacity:0.992" fill="#000000" d="M 4061.5,1622.5 C 4164.82,1627.71 4268.16,1632.71 4371.5,1637.5C 4369.64,1673.89 4367.14,1710.23 4364,1746.5C 4320.76,1742.02 4277.43,1738.02 4234,1734.5C 4232.02,1734.63 4230.35,1735.3 4229,1736.5C 4228.45,1749.7 4227.61,1762.87 4226.5,1776C 4226.64,1776.77 4226.98,1777.44 4227.5,1778C 4259.74,1781.45 4292.08,1783.28 4324.5,1783.5C 4320.89,1840.62 4316.39,1897.62 4311,1954.5C 4278.95,1951.51 4246.78,1949.51 4214.5,1948.5C 4212.61,1969.15 4210.95,1989.81 4209.5,2010.5C 4257.87,2013.3 4306.2,2016.64 4354.5,2020.5C 4352.19,2050.36 4349.85,2080.2 4347.5,2110C 4241.11,2105.04 4134.78,2098.87 4028.5,2091.5C 4039.55,1935.18 4050.55,1778.84 4061.5,1622.5 Z"/></g>
<g><path style="opacity:0.992" fill="#000000" d="M 4454.5,1622.5 C 4557.82,1627.71 4661.16,1632.71 4764.5,1637.5C 4762.64,1673.89 4760.14,1710.23 4757,1746.5C 4713.76,1742.02 4670.43,1738.02 4627,1734.5C 4625.02,1734.63 4623.35,1735.3 4622,1736.5C 4621.45,1749.7 4620.61,1762.87 4619.5,1776C 4619.64,1776.77 4619.98,1777.44 4620.5,1778C 4652.74,1781.45 4685.08,1783.28 4717.5,1783.5C 4713.89,1840.62 4709.39,1897.62 4704,1954.5C 4671.95,1951.51 4639.78,1949.51 4607.5,1948.5C 4605.61,1969.15 4603.95,1989.81 4602.5,2010.5C 4650.87,2013.3 4699.2,2016.64 4747.5,2020.5C 4745.19,2050.36 4742.85,2080.2 4740.5,2110C 4634.11,2105.04 4527.78,2098.87 4421.5,2091.5C 4432.55,1935.18 4443.55,1778.84 4454.5,1622.5 Z"/></g>
<g><path style="opacity:0.99" fill="#000000" d="M 2200.5,1846.5 C 2205.5,1846.5 2210.5,1846.5 2215.5,1846.5C 2213.18,1889.48 2211.18,1932.48 2209.5,1975.5C 2093.5,1983.17 1977.5,1990.83 1861.5,1998.5C 1863.43,1955.83 1865.43,1913.16 1867.5,1870.5C 1978.67,1862.84 2089.67,1854.84 2200.5,1846.5 Z"/></g>
</svg>
